<svg height="512" viewBox="0 0 512 512" width="512" xmlns="http://www.w3.org/2000/svg" xmlns:xlink="http://www.w3.org/1999/xlink"><linearGradient id="linear-gradient" gradientUnits="userSpaceOnUse" x1="91.714" x2="418.154" y1="419.22" y2="92.78"><stop offset="0" stop-color="#d6b43d"/><stop offset=".0515" stop-color="#dba93f"/><stop offset=".143" stop-color="#e88a45"/><stop offset=".1642" stop-color="#eb8246"/><stop offset=".2107" stop-color="#e7774d"/><stop offset=".2935" stop-color="#dd5860"/><stop offset=".3104" stop-color="#db5164"/><stop offset=".4639" stop-color="#d2466c"/><stop offset=".5672" stop-color="#c93b73"/><stop offset=".607" stop-color="#cb3179"/><stop offset=".7329" stop-color="#a23394"/><stop offset=".8557" stop-color="#7f35ab"/><stop offset=".9097" stop-color="#7d35ab"/><stop offset=".9398" stop-color="#7537aa"/><stop offset=".964" stop-color="#673aa9"/><stop offset=".985" stop-color="#533da8"/><stop offset="1" stop-color="#4041a6"/></linearGradient><radialGradient id="radial-gradient" cx="264.408" cy="326" gradientTransform="matrix(.765 -.644 .489 .58 -97.116 307.13)" gradientUnits="userSpaceOnUse" r="270.534"><stop offset="0"/><stop offset="1" stop-color="#fff" stop-opacity="0"/></radialGradient><radialGradient id="radial-gradient-2" cx="210.54" cy="150.541" fx="261.314" fy="298.716" gradientUnits="userSpaceOnUse" r="219.386"><stop offset="0" stop-color="#fff"/><stop offset=".0736" stop-color="#fff" stop-opacity=".824"/><stop offset=".1652" stop-color="#fff" stop-opacity=".633"/><stop offset=".262" stop-color="#fff" stop-opacity=".463"/><stop offset=".362" stop-color="#fff" stop-opacity=".32"/><stop offset=".4663" stop-color="#fff" stop-opacity=".203"/><stop offset=".5761" stop-color="#fff" stop-opacity=".113"/><stop offset=".6941" stop-color="#fff" stop-opacity=".05"/><stop offset=".8259" stop-color="#fff" stop-opacity=".012"/><stop offset="1" stop-color="#fff" stop-opacity="0"/></radialGradient><g isolation="isolate"><g id="Layer_1" data-name="Layer 1"><circle cx="254.934" cy="256" fill="url(#linear-gradient)" r="230.829"/><g fill="#fff" fill-rule="evenodd"><path d="m254.9336 144.96c36.4578 0 40.7469 0 55.0439.7075 13.5825.707 20.731 2.8284 25.02 4.9505 6.4333 2.122 10.7224 5.658 15.7267 9.9015 5.0036 4.9505 7.863 9.194 10.0072 15.56 2.1449 4.9511 4.29 12.0236 5.0043 24.7535.7153 14.1454.7153 18.3889.7153 54.4594s0 40.3135-.7153 54.4588c-.7144 13.4382-2.8594 20.5107-5.0043 24.7545-2.1442 6.3656-5.718 10.6085-10.0072 15.56-5.0043 4.951-9.2934 7.7795-15.7267 9.9015-5.0043 2.1224-12.1528 4.2435-25.02 4.95-14.297.7075-18.5861.7075-55.0439.7075s-40.7461 0-55.0431-.7075c-13.5818-.707-20.73-2.8281-25.0194-4.95-6.434-2.122-10.7231-5.658-15.7275-9.9015-5.0035-4.9511-7.8629-9.194-10.0079-15.56-2.1441-4.9514-4.2891-12.0239-5.0036-24.7545-.7144-14.1453-.7144-18.3882-.7144-54.4588s0-40.314.7144-54.4594c.7145-13.4375 2.8595-20.51 5.0036-24.7535 2.145-6.3659 5.7188-10.6094 10.0079-15.56 5.0044-4.9511 9.2935-7.78 15.7275-9.9015 5.0036-2.1221 12.1521-4.2435 25.0194-4.9505 14.297-.7075 18.5861-.7075 55.0431-.7075m0-24.047c-37.1722 0-41.4613 0-56.4728.7076-14.297.707-24.3049 2.829-32.8831 6.365a64.6681 64.6681 0 0 0 -24.305 15.56 63.82 63.82 0 0 0 -15.7267 24.0467c-3.5738 8.4873-5.7188 18.3888-6.434 32.5339s-.7145 19.0958-.7145 55.8739 0 41.02.7145 55.8733c.7152 14.1451 2.86 24.0469 6.434 32.5339a63.83 63.83 0 0 0 15.7267 24.0467 64.6521 64.6521 0 0 0 24.305 15.56c8.5782 3.536 18.5861 5.658 32.8831 6.3656s19.3006.707 56.4728.707 41.4614 0 56.4736-.707c14.297-.7076 24.3049-2.83 32.8831-6.3656a64.6634 64.6634 0 0 0 24.3049-15.56 63.8176 63.8176 0 0 0 15.7267-24.0467c3.5747-8.487 5.7188-18.3888 6.434-32.5339s.7141-19.0956.7141-55.8734 0-41.0216-.7145-55.8739c-.7152-14.1451-2.8593-24.0466-6.434-32.5339a63.8083 63.8083 0 0 0 -15.7267-24.0467 64.6793 64.6793 0 0 0 -24.3049-15.56c-8.5782-3.536-18.5861-5.658-32.8831-6.365-15.0122-.7076-19.3006-.7076-56.4736-.7076"/><path d="m254.9344 184.9016c-39.5973 0-71.8617 31.9214-71.8617 71.0981s32.2644 71.0978 71.8617 71.0978 71.8617-31.9214 71.8617-71.0975c0-39.9016-32.2645-71.0981-71.8617-71.0981m0 116.8042c-25.6653 0-46.93-20.3138-46.93-46.4322 0-26.1166 20.5319-46.43 46.93-46.43 25.6645 0 46.93 20.3139 46.93 46.43 0 26.1184-21.2655 46.4322-46.93 46.4322"/><path d="m341.1682 184.9019a14.3734 14.3734 0 1 1 -14.3729-14.22 14.067 14.067 0 0 1 14.3729 14.22"/></g><path d="m467.1946 165.1718a230.513 230.513 0 0 1 2.6011 34.5219c0 129.4458-107.6157 234.3828-240.3662 234.3828-75.187 0-142.3008-33.67-186.377-86.3813 35.4756 81.86 116.9839 139.1333 211.8814 139.1333 127.4829 0 230.8286-103.3452 230.8286-230.8286a230.0658 230.0658 0 0 0 -18.5679-90.8281z" fill="url(#radial-gradient)" mix-blend-mode="multiply"/><path d="m39.0281 220.7355c21.96 56.25 116.2212 71.9993 210.5376 35.1773s158.5389-114.7754 131.0115-168.5215c-16.263-31.7537-69.4149-60.3147-132.1229-62.1182h-.3425c-100.9336 2.93-185.603 70.6641-213.8982 163.0386a77.4 77.4 0 0 0 4.8145 32.4238z" fill="url(#radial-gradient-2)"/></g></g></svg>