<svg id="Layer_1" enable-background="new 0 0 512 512" height="512" viewBox="0 0 512 512" width="512" xmlns="http://www.w3.org/2000/svg"><path d="m358.073 141.639c-27.463-12.123-63.714-18.799-102.073-18.799-38.36 0-74.61 6.676-102.073 18.799-30.583 13.5-47.427 32.641-47.427 53.896 0 7.695 4.9 19.505 12.375 36.645l.185.423c5.204 11.931 18.111 18.142 30.679 14.776l38.553-10.331c13.901-3.725 22.18-18.064 18.455-31.966l-.706-2.633c-.901-3.364-.427-6.283 1.491-9.188 1.919-2.906 4.418-4.488 7.864-4.979 13.063-1.862 26.724-2.806 40.603-2.806 13.88 0 27.541.944 40.602 2.806 3.447.492 5.946 2.074 7.865 4.979s2.393 5.825 1.492 9.188l-.707 2.635c-3.724 13.901 4.555 28.24 18.456 31.966l38.553 10.331c2.294.615 4.6.91 6.867.91 10.158 0 19.557-5.933 23.812-15.688l.187-.429c7.474-17.136 12.373-28.944 12.373-36.639.001-21.255-16.843-40.395-47.426-53.896zm13.055 80.941-.187.428c-.439 1.006-1.408 1.475-2.469 1.189l-38.553-10.331c-1.1-.294-1.781-1.473-1.486-2.571l.706-2.634c2.693-10.048 1.086-19.947-4.647-28.627-5.732-8.68-14.206-14.044-24.504-15.513-14.18-2.021-28.98-3.046-43.989-3.046s-29.809 1.025-43.991 3.046c-10.297 1.469-18.771 6.833-24.503 15.513s-7.339 18.578-4.647 28.627l.706 2.633c.295 1.1-.385 2.278-1.485 2.572l-38.553 10.33s0 0-.001 0c-1.058.283-2.029-.182-2.468-1.188l-.185-.423c-3.239-7.427-9.961-22.841-10.373-27.172.092-10.813 12.458-22.699 33.118-31.819 24.478-10.805 57.286-16.755 92.381-16.755s67.904 5.951 92.381 16.755c20.661 9.12 33.027 21.006 33.119 31.819-.41 4.332-7.131 19.741-10.37 27.167zm11.869 73.88-83.601-37.059v-18.4c0-10.293-8.6-18.667-19.17-18.667h-48.452c-10.57 0-19.17 8.374-19.17 18.667v18.4l-83.602 37.059c-10.004 4.435-15.742 14.658-15.742 28.048v37.455c0 14.997 12.714 27.197 28.342 27.197h228.794c15.628 0 28.342-12.201 28.342-27.197v-37.455c.001-13.389-5.737-23.612-15.741-28.048zm-8.258 65.504c0 1.512-1.783 3.197-4.342 3.197h-228.794c-2.559 0-4.342-1.685-4.342-3.197v-37.455c0-3.856.956-5.881 1.468-6.107l90.739-40.223c4.339-1.924 7.137-6.224 7.137-10.971v-20.875h38.792v20.875c0 4.747 2.798 9.047 7.137 10.971l90.738 40.222c.512.227 1.469 2.252 1.469 6.108v37.455zm-118.738-361.963c-141.159 0-256.001 114.842-256.001 256.002 0 141.158 114.842 255.997 256.001 255.997s255.999-114.839 255.999-255.997c0-141.16-114.84-256.002-255.999-256.002zm0 487.999c-127.925 0-232.001-104.073-232.001-231.997 0-127.926 104.076-232.002 232.001-232.002s231.999 104.076 231.999 232.002c0 127.924-104.074 231.997-231.999 231.997z"/></svg>